<svg width="816" height="1056" viewBox="0 0 816 1056" fill="none" xmlns="http://www.w3.org/2000/svg">
<path d="M157.885 726.234V628.633H216.789V639.118H169.704V672.096H213.739V682.58H169.704V715.75H217.551V726.234H157.885ZM236.566 726.234V653.033H247.432V664.09H248.195C249.529 660.468 251.944 657.529 255.439 655.273C258.933 653.017 262.873 651.89 267.257 651.89C268.083 651.89 269.116 651.905 270.355 651.937C271.594 651.969 272.531 652.017 273.167 652.08V663.518C272.786 663.422 271.912 663.279 270.546 663.089C269.211 662.866 267.798 662.755 266.304 662.755C262.746 662.755 259.569 663.502 256.773 664.995C254.009 666.457 251.817 668.49 250.196 671.095C248.608 673.669 247.813 676.607 247.813 679.912V726.234H236.566ZM297.746 682.199V726.234H286.499V653.033H297.365V664.471H298.318C300.033 660.754 302.639 657.767 306.133 655.511C309.628 653.224 314.14 652.08 319.668 652.08C324.624 652.08 328.961 653.097 332.678 655.13C336.395 657.132 339.287 660.182 341.352 664.28C343.417 668.347 344.449 673.494 344.449 679.721V726.234H333.202V680.484C333.202 674.733 331.709 670.253 328.723 667.044C325.736 663.804 321.638 662.183 316.427 662.183C312.837 662.183 309.628 662.962 306.801 664.519C304.005 666.075 301.797 668.347 300.176 671.333C298.556 674.32 297.746 677.942 297.746 682.199ZM394.739 727.759C388.131 727.759 382.332 726.186 377.344 723.041C372.388 719.896 368.512 715.495 365.716 709.84C362.952 704.185 361.57 697.576 361.57 690.015C361.57 682.39 362.952 675.734 365.716 670.047C368.512 664.36 372.388 659.944 377.344 656.798C382.332 653.653 388.131 652.08 394.739 652.08C401.347 652.08 407.13 653.653 412.086 656.798C417.074 659.944 420.95 664.36 423.714 670.047C426.51 675.734 427.908 682.39 427.908 690.015C427.908 697.576 426.51 704.185 423.714 709.84C420.95 715.495 417.074 719.896 412.086 723.041C407.13 726.186 401.347 727.759 394.739 727.759ZM394.739 717.656C399.759 717.656 403.889 716.369 407.13 713.796C410.37 711.222 412.769 707.839 414.326 703.645C415.883 699.451 416.661 694.908 416.661 690.015C416.661 685.122 415.883 680.563 414.326 676.337C412.769 672.112 410.37 668.696 407.13 666.091C403.889 663.486 399.759 662.183 394.739 662.183C389.719 662.183 385.589 663.486 382.348 666.091C379.108 668.696 376.709 672.112 375.152 676.337C373.595 680.563 372.817 685.122 372.817 690.015C372.817 694.908 373.595 699.451 375.152 703.645C376.709 707.839 379.108 711.222 382.348 713.796C385.589 716.369 389.719 717.656 394.739 717.656ZM502.312 653.033L475.243 726.234H463.806L436.737 653.033H448.937L469.143 711.365H469.906L490.112 653.033H502.312ZM556.426 726.234V628.633H590.549C597.348 628.633 602.955 629.809 607.371 632.16C611.788 634.479 615.076 637.608 617.236 641.548C619.397 645.456 620.477 649.793 620.477 654.558C620.477 658.752 619.73 662.215 618.237 664.947C616.776 667.68 614.838 669.84 612.423 671.429C610.04 673.017 607.451 674.193 604.655 674.955V675.909C607.641 676.099 610.644 677.148 613.662 679.054C616.68 680.96 619.206 683.692 621.239 687.251C623.273 690.809 624.289 695.162 624.289 700.309C624.289 705.202 623.178 709.602 620.954 713.51C618.73 717.418 615.219 720.515 610.421 722.803C605.624 725.09 599.381 726.234 591.692 726.234H556.426ZM568.245 715.75H591.692C599.413 715.75 604.893 714.256 608.134 711.27C611.406 708.252 613.043 704.598 613.043 700.309C613.043 697.005 612.201 693.955 610.517 691.159C608.833 688.331 606.434 686.075 603.321 684.391C600.207 682.676 596.522 681.818 592.264 681.818H568.245V715.75ZM568.245 671.524H590.167C593.726 671.524 596.935 670.825 599.794 669.427C602.685 668.029 604.973 666.059 606.657 663.518C608.372 660.976 609.23 657.99 609.23 654.558C609.23 650.269 607.737 646.631 604.75 643.645C601.764 640.627 597.03 639.118 590.549 639.118H568.245V671.524ZM663.725 727.95C659.087 727.95 654.877 727.076 651.096 725.329C647.316 723.549 644.313 720.992 642.089 717.656C639.865 714.288 638.753 710.221 638.753 705.456C638.753 701.262 639.579 697.862 641.231 695.257C642.884 692.62 645.092 690.555 647.856 689.062C650.62 687.569 653.67 686.457 657.006 685.726C660.374 684.963 663.757 684.36 667.157 683.915C671.605 683.343 675.211 682.914 677.975 682.628C680.771 682.31 682.804 681.786 684.075 681.055C685.377 680.325 686.029 679.054 686.029 677.243V676.862C686.029 672.16 684.742 668.506 682.169 665.901C679.627 663.295 675.767 661.993 670.588 661.993C665.219 661.993 661.009 663.168 657.959 665.519C654.909 667.87 652.764 670.38 651.525 673.049L640.85 669.237C642.756 664.789 645.298 661.326 648.475 658.847C651.684 656.338 655.179 654.59 658.96 653.605C662.772 652.589 666.521 652.08 670.207 652.08C672.558 652.08 675.258 652.366 678.308 652.938C681.39 653.478 684.361 654.606 687.22 656.322C690.111 658.037 692.51 660.627 694.416 664.09C696.323 667.553 697.276 672.191 697.276 678.005V726.234H686.029V716.321H685.457C684.694 717.91 683.424 719.61 681.644 721.421C679.865 723.232 677.498 724.773 674.543 726.043C671.589 727.314 667.983 727.95 663.725 727.95ZM665.441 717.846C669.889 717.846 673.638 716.973 676.688 715.225C679.77 713.478 682.089 711.222 683.646 708.458C685.234 705.694 686.029 702.787 686.029 699.737V689.443C685.552 690.015 684.504 690.539 682.883 691.016C681.295 691.46 679.452 691.858 677.355 692.207C675.29 692.525 673.273 692.811 671.303 693.065C669.365 693.287 667.792 693.478 666.585 693.637C663.662 694.018 660.93 694.638 658.388 695.495C655.878 696.321 653.845 697.576 652.288 699.26C650.763 700.912 650 703.168 650 706.028C650 709.935 651.446 712.89 654.337 714.892C657.26 716.862 660.961 717.846 665.441 717.846ZM729.051 628.633V726.234H717.804V628.633H729.051ZM749.65 726.234V653.033H760.897V726.234H749.65ZM755.369 640.833C753.177 640.833 751.287 640.087 749.698 638.593C748.141 637.1 747.363 635.305 747.363 633.208C747.363 631.111 748.141 629.316 749.698 627.823C751.287 626.33 753.177 625.583 755.369 625.583C757.561 625.583 759.436 626.33 760.993 627.823C762.581 629.316 763.376 631.111 763.376 633.208C763.376 635.305 762.581 637.1 760.993 638.593C759.436 640.087 757.561 640.833 755.369 640.833Z" fill="white"/>
<path fill-rule="evenodd" clip-rule="evenodd" d="M578.124 524.496C579.457 523.673 585.141 512.775 586.144 510.392C591.078 498.666 594.088 490.215 595.51 477.695C596.109 472.424 596.301 467.802 596.246 462.859C596.139 453.248 594.571 444.072 592.244 435.696C590.782 430.434 588.956 426.827 587.821 423.205C587.241 421.354 583.176 413.472 581.937 411.371C572.239 394.918 558.809 380.855 541.776 371.45C525.206 362.3 505.571 356.84 486.601 357.472C480.511 357.675 478.805 357.811 472.669 358.647C468.521 359.213 463.485 360.335 459.457 361.43C455.718 362.447 450.692 364.318 446.954 365.806L439.468 369.335C433.443 372.219 423.349 379.02 418.578 383.436C414.006 387.668 413.303 388.166 408.537 393.311C389.244 414.136 378.698 446.068 381.546 473.746C382.439 482.432 383.186 488.529 386.048 496.993L387.502 501.746C388.85 504.679 389.404 506.668 390.59 509.43L393.622 515.406C393.965 516.067 393.888 516.129 394.369 516.795C395.873 518.877 400.763 527.799 402.858 529.672L398.307 519.472C397.558 517.842 396.942 515.935 396.31 514.183C393.349 505.971 391.514 494.119 391.275 485.571C390.67 463.847 397.438 440.581 412.571 421.956C418.45 414.722 422.34 410.817 429.663 405.119C438.908 397.926 448.635 393.09 459.691 389.45L467.956 387.214C469.01 387.041 469.806 386.895 470.803 386.691C474.356 385.963 478.691 385.448 482.435 385.113C489.681 384.464 500.827 385.303 507.608 386.641C517.121 388.517 526.488 391.637 535.362 396.434C541.291 399.639 546.526 403.182 551.619 407.415C561.482 415.613 571.462 427.713 576.862 439.123L580.308 446.83C581.894 451.419 583.467 455.472 584.577 460.362C585.02 462.314 585.382 463.88 585.7 466.014C587.472 477.924 587.754 484.335 586.239 496.633C585.317 504.11 583.513 510.569 580.806 517.69C580.383 518.803 578.095 524.302 578.123 524.498L578.124 524.496Z" fill="white"/>
<path fill-rule="evenodd" clip-rule="evenodd" d="M542.773 300.809L542.665 302.026C540.484 302.255 539.35 302.971 536.357 302.975C525.98 302.986 529.336 297.341 525.148 291.949C523.823 293.42 524.131 296.093 522.871 297.86C522.001 296.188 521.452 293.688 520.58 291.927L516.023 283.675C515 282.134 515.08 282.44 512.943 282.281C510.87 282.128 507.421 281.556 505.398 281.171C496.831 279.543 485.884 276.691 481.211 271.006C482.449 271.24 483.416 272.399 484.553 273.086C491.974 277.563 508.519 278.895 517.086 280.133C528.278 281.749 539.547 282.876 550.262 286.294C551.713 286.757 553.151 287.299 554.641 287.745C554.928 289.933 553.059 293.222 552.444 295.499C554.049 295.405 555.512 293.794 556.239 292.826C556.679 292.24 557.205 291.563 557.554 290.939C557.893 290.333 558.281 288.992 558.688 288.557C559.481 287.712 569.093 286.939 570.357 287.009C568.802 293.558 568.988 291.422 567.695 295.598C570.121 295.236 572.066 292.515 572.966 290.938C574.494 288.261 574.286 286.136 575.244 283.297C578.881 272.522 561.134 269.365 554.438 266.126C544.924 261.523 539.68 255.875 531.795 249.588C523.828 243.235 514.45 239.898 504.028 238.149L478.287 234.461C469.115 233.41 459.203 233.629 449.666 233.613C439.128 233.597 423.734 234.945 412.996 236.31C395.809 238.494 374.969 243.786 359.224 251.246C352.831 254.275 345.867 257.481 339.706 261.232C335.461 263.818 331.499 266.175 327.652 268.777C319.831 274.066 312.594 279.972 305.693 286.303L295.89 296.092C284.255 307.718 275.387 321.201 266.747 335.682C259.55 347.745 253.587 363.95 249.558 377.554C245.439 391.46 242.499 410.032 242.533 424.515C242.538 426.394 242.222 427.181 242.208 428.988C242.1 442.095 243.861 461.286 247.057 473.69C247.739 476.342 248.22 478.817 248.903 481.436C250.853 488.917 253.453 496.31 256.249 503.642C258.014 508.272 260.467 512.547 262.309 517.167C263.991 521.386 266.883 525.968 269.197 529.862C274.901 539.462 281.189 548.661 288.546 557.052C289.362 557.983 289.016 557.699 289.59 558.571L299.006 568.745C299.92 569.624 300.727 570.08 301.542 571.024C304.43 574.379 310.942 579.746 314.62 582.677C325.906 591.673 337.246 599.185 350.495 605.891L364.013 611.991C373.684 615.876 383.803 618.826 394.055 621.424C401.932 623.421 410.743 624.559 419.129 625.455C422.025 625.765 425.357 625.717 428.452 626.07C444.816 627.933 469.982 624.581 486.087 620.55L497.628 617.228C509.783 613.728 520.898 608.457 532.029 602.526C534.276 601.329 535.958 600.157 538.342 598.915C547.83 593.97 558.562 585.106 566.793 578.224C567.963 577.246 567.86 577.109 569.424 576.053C571.947 574.35 574.38 571.08 576.99 568.846C579.594 566.619 579.881 565.403 581.721 563.623C582.63 562.744 583.325 562.122 584.057 561.157C584.954 559.974 585.558 559.865 586.406 558.666C590.385 553.036 595.124 548.262 599.269 542.008C600.659 539.911 601.953 538.044 603.287 536.063C604.042 534.94 606.584 530.804 606.868 529.942C604.983 530.682 603.349 534.296 602.097 535.83C594.846 544.715 587.257 552.836 578.256 560.154C576.924 561.237 575.334 562.262 574.039 563.32C570.221 566.441 565.257 569.823 561.03 572.465C541.322 584.783 518.751 593.11 495.586 595.765C471.115 598.568 441.5 596.077 418.463 586.67C413.245 584.539 407.761 582.689 402.999 580.028L388.938 571.9C379.962 566.371 371.454 559.888 364.023 552.529C353.23 541.841 345.428 532.782 337.669 519.83C333.833 513.427 330.44 507.415 327.495 500.426C321.166 485.405 316.686 470.629 314.97 453.738C312.546 429.895 314.6 410.424 321.072 387.773C324.342 376.324 329.825 364.731 335.599 354.429C339.476 347.513 344.316 340.889 349.278 334.716C350.398 333.322 351.23 331.982 352.48 330.532C353.467 329.387 355.331 327.889 356.075 326.74C357.002 325.311 358.297 324.108 359.56 322.839C360.68 321.716 361.781 320.768 363.26 319.156C369.237 312.647 385.993 300.347 392.545 296.752L397.218 294.009C402.174 291.512 406.878 288.953 412.15 286.758C444.802 273.16 475.229 280.136 504.919 297.974L518.515 306.533C526.633 311.983 541.092 310.666 548.893 307.027C548.143 302.803 545.731 298.572 544.765 294.412C544.351 294.826 544.596 294.426 544.291 295.032C543.463 296.666 543.741 299.173 542.775 300.81L542.773 300.809ZM510.709 247.456C514.406 247.897 522.043 251.394 523.877 253.57C524.425 248.208 515.886 244.715 510.709 247.456Z" fill="white"/>
<path fill-rule="evenodd" clip-rule="evenodd" d="M530.545 349.533C529.298 347.942 514.511 342.232 511.31 341.291C495.57 336.659 484.304 334.022 468.051 334.007C461.209 334.001 455.257 334.421 448.93 335.205C436.626 336.73 425.092 340.065 414.694 344.256C408.16 346.889 403.8 349.751 399.324 351.728C397.034 352.739 387.52 359.086 385.005 360.977C365.318 375.782 349.232 395.027 339.637 418.214C330.302 440.774 326.138 466.727 329.687 490.948C330.827 498.725 331.247 500.892 333.204 508.635C334.527 513.871 336.693 520.163 338.678 525.166C340.521 529.812 343.645 535.984 346.092 540.559L351.695 549.644C356.261 556.951 366.435 568.905 372.785 574.383C378.868 579.632 379.608 580.461 386.89 585.827C416.368 607.548 458.814 616.454 493.878 608.808C504.881 606.409 512.588 604.572 523.023 599.681L528.904 597.132C532.468 594.98 534.937 593.982 538.306 592.064L545.527 587.315C546.326 586.778 546.415 586.868 547.2 586.156C549.652 583.929 560.381 576.373 562.479 573.418L550.063 580.722C548.082 581.918 545.726 582.983 543.573 584.045C533.474 589.025 518.549 593.089 507.628 594.629C479.874 598.541 449.077 593.226 423.022 576.518C412.9 570.028 407.334 565.606 398.974 557.043C388.419 546.232 380.817 534.463 374.556 520.819L370.497 510.548C370.124 509.222 369.821 508.223 369.416 506.976C367.97 502.527 366.684 497.046 365.713 492.295C363.836 483.101 363.302 468.695 364.037 459.81C365.069 447.348 367.715 434.891 372.582 422.826C375.835 414.764 379.619 407.543 384.31 400.404C393.393 386.58 407.46 372.041 421.306 363.472L430.686 357.945C436.338 355.249 441.306 352.647 447.413 350.519C449.851 349.67 451.805 348.978 454.494 348.263C469.502 344.273 477.68 342.987 493.66 343.153C503.377 343.255 511.916 344.633 521.433 347.077C522.922 347.459 530.3 349.597 530.546 349.532L530.545 349.533Z" fill="white"/>
<path fill-rule="evenodd" clip-rule="evenodd" d="M542.774 300.809C539.176 298.02 537.536 299 533.241 293.739C530.614 290.522 528.598 287.358 527.314 282.647L518.484 281.274C520.525 286.577 528.455 295.374 534.097 298.339C536.755 299.737 538.876 300.85 542.773 300.809H542.774Z" fill="white"/>
<path d="M155.961 780.25V739.5H161.493L182.896 771.494V739.5H188.067V780.25H182.535L161.132 748.228V780.25H155.961ZM215.864 780.25V775.914C213.566 779.25 210.443 780.917 206.496 780.917C204.754 780.917 203.123 780.584 201.604 779.917C200.103 779.25 198.982 778.416 198.24 777.415C197.518 776.396 197.008 775.154 196.712 773.69C196.508 772.708 196.406 771.151 196.406 769.02V750.73H201.409V767.102C201.409 769.715 201.511 771.476 201.715 772.384C202.03 773.699 202.697 774.737 203.716 775.497C204.736 776.238 205.996 776.609 207.497 776.609C208.998 776.609 210.406 776.229 211.722 775.469C213.038 774.691 213.964 773.644 214.502 772.328C215.057 770.994 215.335 769.067 215.335 766.546V750.73H220.339V780.25H215.864ZM226.204 771.439L231.152 770.66C231.43 772.643 232.199 774.163 233.459 775.219C234.738 776.275 236.517 776.803 238.796 776.803C241.094 776.803 242.799 776.34 243.911 775.414C245.022 774.468 245.578 773.366 245.578 772.106C245.578 770.975 245.087 770.086 244.105 769.437C243.42 768.993 241.715 768.427 238.991 767.742C235.321 766.815 232.773 766.018 231.346 765.351C229.938 764.665 228.863 763.73 228.122 762.544C227.399 761.339 227.038 760.014 227.038 758.569C227.038 757.253 227.334 756.039 227.927 754.927C228.539 753.797 229.364 752.861 230.401 752.12C231.18 751.545 232.236 751.064 233.57 750.674C234.923 750.267 236.368 750.063 237.906 750.063C240.223 750.063 242.252 750.396 243.994 751.064C245.754 751.731 247.052 752.639 247.886 753.788C248.719 754.918 249.294 756.438 249.609 758.346L244.717 759.013C244.494 757.494 243.846 756.308 242.771 755.455C241.715 754.603 240.214 754.177 238.268 754.177C235.97 754.177 234.33 754.557 233.348 755.316C232.366 756.076 231.875 756.966 231.875 757.985C231.875 758.634 232.078 759.217 232.486 759.736C232.894 760.274 233.533 760.718 234.404 761.07C234.904 761.256 236.378 761.682 238.824 762.349C242.363 763.294 244.828 764.072 246.218 764.684C247.626 765.277 248.729 766.148 249.526 767.297C250.322 768.446 250.721 769.873 250.721 771.578C250.721 773.245 250.23 774.821 249.248 776.303C248.284 777.767 246.885 778.907 245.05 779.722C243.216 780.519 241.14 780.917 238.824 780.917C234.988 780.917 232.06 780.121 230.04 778.527C228.039 776.933 226.76 774.57 226.204 771.439ZM275.933 776.609C274.079 778.184 272.291 779.296 270.568 779.944C268.863 780.593 267.028 780.917 265.064 780.917C261.821 780.917 259.329 780.13 257.587 778.555C255.845 776.961 254.974 774.932 254.974 772.467C254.974 771.022 255.298 769.706 255.947 768.52C256.614 767.315 257.475 766.352 258.532 765.629C259.607 764.906 260.811 764.36 262.145 763.989C263.128 763.73 264.61 763.479 266.593 763.239C270.633 762.757 273.607 762.182 275.516 761.515C275.534 760.829 275.543 760.394 275.543 760.209C275.543 758.17 275.071 756.734 274.126 755.9C272.847 754.77 270.948 754.205 268.427 754.205C266.074 754.205 264.332 754.622 263.202 755.455C262.09 756.271 261.265 757.726 260.728 759.82L255.835 759.152C256.28 757.058 257.012 755.372 258.031 754.093C259.051 752.796 260.524 751.805 262.451 751.119C264.378 750.415 266.611 750.063 269.15 750.063C271.67 750.063 273.718 750.359 275.293 750.952C276.868 751.545 278.027 752.296 278.768 753.204C279.509 754.093 280.028 755.224 280.325 756.595C280.491 757.448 280.575 758.986 280.575 761.209V767.881C280.575 772.532 280.677 775.478 280.88 776.72C281.103 777.943 281.529 779.12 282.159 780.25H276.933C276.414 779.212 276.081 777.999 275.933 776.609ZM275.516 765.435C273.7 766.176 270.976 766.806 267.343 767.325C265.286 767.621 263.832 767.955 262.979 768.325C262.127 768.696 261.469 769.243 261.006 769.965C260.542 770.67 260.311 771.457 260.311 772.328C260.311 773.662 260.811 774.774 261.812 775.664C262.831 776.553 264.314 776.998 266.259 776.998C268.187 776.998 269.901 776.581 271.402 775.747C272.903 774.895 274.005 773.737 274.71 772.273C275.247 771.142 275.516 769.474 275.516 767.269V765.435ZM288.358 780.25V750.73H292.861V754.927C295.029 751.684 298.161 750.063 302.256 750.063C304.035 750.063 305.666 750.387 307.149 751.036C308.65 751.666 309.771 752.5 310.512 753.537C311.253 754.575 311.772 755.808 312.069 757.234C312.254 758.161 312.347 759.782 312.347 762.099V780.25H307.343V762.293C307.343 760.255 307.149 758.735 306.759 757.735C306.37 756.716 305.675 755.909 304.675 755.316C303.692 754.705 302.534 754.399 301.2 754.399C299.069 754.399 297.225 755.076 295.668 756.428C294.13 757.781 293.361 760.348 293.361 764.128V780.25H288.358ZM330.97 775.775L331.693 780.195C330.285 780.491 329.025 780.639 327.913 780.639C326.097 780.639 324.688 780.352 323.688 779.778C322.687 779.203 321.983 778.453 321.575 777.526C321.167 776.581 320.964 774.607 320.964 771.605V754.622H317.294V750.73H320.964V743.419L325.939 740.417V750.73H330.97V754.622H325.939V771.883C325.939 773.31 326.023 774.228 326.189 774.635C326.375 775.043 326.662 775.367 327.051 775.608C327.459 775.849 328.033 775.97 328.774 775.97C329.33 775.97 330.062 775.905 330.97 775.775ZM355.154 776.609C353.301 778.184 351.512 779.296 349.789 779.944C348.084 780.593 346.249 780.917 344.285 780.917C341.042 780.917 338.55 780.13 336.808 778.555C335.066 776.961 334.195 774.932 334.195 772.467C334.195 771.022 334.519 769.706 335.168 768.52C335.835 767.315 336.697 766.352 337.753 765.629C338.828 764.906 340.032 764.36 341.366 763.989C342.349 763.73 343.831 763.479 345.814 763.239C349.854 762.757 352.828 762.182 354.737 761.515C354.755 760.829 354.765 760.394 354.765 760.209C354.765 758.17 354.292 756.734 353.347 755.9C352.068 754.77 350.169 754.205 347.649 754.205C345.295 754.205 343.553 754.622 342.423 755.455C341.311 756.271 340.486 757.726 339.949 759.82L335.057 759.152C335.501 757.058 336.233 755.372 337.253 754.093C338.272 752.796 339.745 751.805 341.672 751.119C343.599 750.415 345.832 750.063 348.371 750.063C350.892 750.063 352.939 750.359 354.514 750.952C356.09 751.545 357.248 752.296 357.989 753.204C358.73 754.093 359.249 755.224 359.546 756.595C359.712 757.448 359.796 758.986 359.796 761.209V767.881C359.796 772.532 359.898 775.478 360.102 776.72C360.324 777.943 360.75 779.12 361.38 780.25H356.154C355.636 779.212 355.302 777.999 355.154 776.609ZM354.737 765.435C352.921 766.176 350.197 766.806 346.564 767.325C344.508 767.621 343.053 767.955 342.2 768.325C341.348 768.696 340.69 769.243 340.227 769.965C339.764 770.67 339.532 771.457 339.532 772.328C339.532 773.662 340.032 774.774 341.033 775.664C342.052 776.553 343.535 776.998 345.48 776.998C347.408 776.998 349.122 776.581 350.623 775.747C352.124 774.895 353.226 773.737 353.931 772.273C354.468 771.142 354.737 769.474 354.737 767.269V765.435ZM367.523 780.25V750.73H372.026V755.205C373.175 753.111 374.232 751.731 375.195 751.064C376.177 750.396 377.252 750.063 378.42 750.063C380.106 750.063 381.82 750.6 383.562 751.675L381.839 756.317C380.616 755.594 379.393 755.233 378.17 755.233C377.076 755.233 376.094 755.567 375.223 756.234C374.352 756.882 373.731 757.79 373.361 758.958C372.805 760.737 372.527 762.683 372.527 764.795V780.25H367.523ZM405.8 776.609C403.946 778.184 402.158 779.296 400.435 779.944C398.73 780.593 396.895 780.917 394.931 780.917C391.688 780.917 389.196 780.13 387.454 778.555C385.712 776.961 384.841 774.932 384.841 772.467C384.841 771.022 385.165 769.706 385.814 768.52C386.481 767.315 387.342 766.352 388.399 765.629C389.474 764.906 390.678 764.36 392.012 763.989C392.995 763.73 394.477 763.479 396.46 763.239C400.5 762.757 403.474 762.182 405.383 761.515C405.401 760.829 405.41 760.394 405.41 760.209C405.41 758.17 404.938 756.734 403.993 755.9C402.714 754.77 400.815 754.205 398.294 754.205C395.941 754.205 394.199 754.622 393.069 755.455C391.957 756.271 391.132 757.726 390.595 759.82L385.702 759.152C386.147 757.058 386.879 755.372 387.898 754.093C388.918 752.796 390.391 751.805 392.318 751.119C394.245 750.415 396.478 750.063 399.017 750.063C401.537 750.063 403.585 750.359 405.16 750.952C406.735 751.545 407.894 752.296 408.635 753.204C409.376 754.093 409.895 755.224 410.192 756.595C410.358 757.448 410.442 758.986 410.442 761.209V767.881C410.442 772.532 410.544 775.478 410.747 776.72C410.97 777.943 411.396 779.12 412.026 780.25H406.8C406.281 779.212 405.948 777.999 405.8 776.609ZM405.383 765.435C403.567 766.176 400.843 766.806 397.21 767.325C395.153 767.621 393.699 767.955 392.846 768.325C391.994 768.696 391.336 769.243 390.873 769.965C390.409 770.67 390.178 771.457 390.178 772.328C390.178 773.662 390.678 774.774 391.679 775.664C392.698 776.553 394.181 776.998 396.126 776.998C398.054 776.998 399.768 776.581 401.269 775.747C402.77 774.895 403.872 773.737 404.577 772.273C405.114 771.142 405.383 769.474 405.383 767.269V765.435Z" fill="white"/>
</svg>
