<svg width="812" height="812" viewBox="0 0 812 812" fill="none" xmlns="http://www.w3.org/2000/svg">
<path d="M104.819 621.619V524.018H163.723V534.502H116.638V567.481H160.673V577.965H116.638V611.134H164.485V621.619H104.819ZM183.5 621.619V548.418H194.366V559.474H195.128C196.463 555.853 198.877 552.914 202.372 550.658C205.867 548.402 209.807 547.274 214.191 547.274C215.017 547.274 216.05 547.29 217.289 547.322C218.528 547.354 219.465 547.401 220.1 547.465V558.903C219.719 558.807 218.845 558.664 217.479 558.474C216.145 558.251 214.731 558.14 213.238 558.14C209.679 558.14 206.502 558.887 203.707 560.38C200.942 561.841 198.75 563.875 197.13 566.48C195.541 569.053 194.747 571.992 194.747 575.296V621.619H183.5ZM244.679 577.584V621.619H233.432V548.418H244.298V559.856H245.251C246.967 556.138 249.572 553.152 253.067 550.896C256.562 548.609 261.073 547.465 266.601 547.465C271.558 547.465 275.895 548.482 279.612 550.515C283.329 552.517 286.22 555.567 288.285 559.665C290.35 563.732 291.383 568.879 291.383 575.106V621.619H280.136V575.868C280.136 570.118 278.643 565.638 275.656 562.429C272.67 559.188 268.571 557.568 263.361 557.568C259.771 557.568 256.562 558.347 253.734 559.903C250.938 561.46 248.73 563.732 247.11 566.718C245.49 569.705 244.679 573.327 244.679 577.584ZM341.673 623.144C335.064 623.144 329.266 621.571 324.278 618.426C319.322 615.28 315.446 610.88 312.65 605.225C309.886 599.57 308.504 592.961 308.504 585.4C308.504 577.775 309.886 571.119 312.65 565.432C315.446 559.744 319.322 555.328 324.278 552.183C329.266 549.038 335.064 547.465 341.673 547.465C348.281 547.465 354.063 549.038 359.02 552.183C364.008 555.328 367.884 559.744 370.648 565.432C373.444 571.119 374.842 577.775 374.842 585.4C374.842 592.961 373.444 599.57 370.648 605.225C367.884 610.88 364.008 615.28 359.02 618.426C354.063 621.571 348.281 623.144 341.673 623.144ZM341.673 613.041C346.693 613.041 350.823 611.754 354.063 609.18C357.304 606.607 359.703 603.223 361.26 599.029C362.816 594.836 363.595 590.292 363.595 585.4C363.595 580.507 362.816 575.948 361.26 571.722C359.703 567.497 357.304 564.081 354.063 561.476C350.823 558.871 346.693 557.568 341.673 557.568C336.653 557.568 332.523 558.871 329.282 561.476C326.041 564.081 323.643 567.497 322.086 571.722C320.529 575.948 319.751 580.507 319.751 585.4C319.751 590.292 320.529 594.836 322.086 599.029C323.643 603.223 326.041 606.607 329.282 609.18C332.523 611.754 336.653 613.041 341.673 613.041ZM449.246 548.418L422.177 621.619H410.739L383.67 548.418H395.87L416.077 606.75H416.839L437.046 548.418H449.246ZM503.36 621.619V524.018H537.482C544.281 524.018 549.889 525.193 554.305 527.544C558.721 529.864 562.009 532.993 564.17 536.933C566.33 540.841 567.411 545.177 567.411 549.943C567.411 554.137 566.664 557.6 565.171 560.332C563.709 563.065 561.771 565.225 559.357 566.814C556.974 568.402 554.384 569.578 551.589 570.34V571.293C554.575 571.484 557.577 572.532 560.596 574.439C563.614 576.345 566.14 579.077 568.173 582.636C570.206 586.194 571.223 590.547 571.223 595.694C571.223 600.586 570.111 604.987 567.887 608.894C565.663 612.802 562.152 615.9 557.355 618.187C552.558 620.475 546.315 621.619 538.626 621.619H503.36ZM515.179 611.134H538.626C546.346 611.134 551.827 609.641 555.067 606.655C558.34 603.636 559.976 599.983 559.976 595.694C559.976 592.389 559.134 589.339 557.45 586.543C555.766 583.716 553.368 581.46 550.254 579.776C547.141 578.061 543.455 577.203 539.198 577.203H515.179V611.134ZM515.179 566.909H537.101C540.659 566.909 543.868 566.21 546.728 564.812C549.619 563.414 551.906 561.444 553.59 558.903C555.306 556.361 556.164 553.374 556.164 549.943C556.164 545.654 554.67 542.016 551.684 539.03C548.697 536.011 543.963 534.502 537.482 534.502H515.179V566.909ZM610.659 623.334C606.02 623.334 601.811 622.461 598.03 620.713C594.249 618.934 591.247 616.377 589.023 613.041C586.799 609.673 585.687 605.606 585.687 600.84C585.687 596.647 586.513 593.247 588.165 590.642C589.817 588.005 592.025 585.94 594.789 584.447C597.553 582.953 600.603 581.841 603.939 581.111C607.307 580.348 610.691 579.744 614.09 579.3C618.538 578.728 622.144 578.299 624.908 578.013C627.704 577.695 629.738 577.171 631.008 576.44C632.311 575.709 632.962 574.439 632.962 572.628V572.246C632.962 567.544 631.676 563.891 629.102 561.285C626.56 558.68 622.7 557.378 617.522 557.378C612.152 557.378 607.943 558.553 604.893 560.904C601.843 563.255 599.698 565.765 598.459 568.434L587.784 564.621C589.69 560.173 592.232 556.71 595.409 554.232C598.618 551.722 602.113 549.975 605.893 548.99C609.706 547.973 613.455 547.465 617.14 547.465C619.491 547.465 622.192 547.751 625.242 548.323C628.324 548.863 631.294 549.991 634.154 551.706C637.045 553.422 639.444 556.011 641.35 559.474C643.256 562.937 644.209 567.576 644.209 573.39V621.619H632.962V611.706H632.39C631.628 613.295 630.357 614.994 628.578 616.805C626.799 618.616 624.432 620.157 621.477 621.428C618.522 622.699 614.916 623.334 610.659 623.334ZM612.375 613.231C616.823 613.231 620.572 612.357 623.622 610.61C626.703 608.863 629.023 606.607 630.58 603.843C632.168 601.079 632.962 598.172 632.962 595.122V584.828C632.486 585.4 631.437 585.924 629.817 586.4C628.228 586.845 626.386 587.242 624.289 587.592C622.224 587.91 620.206 588.196 618.236 588.45C616.298 588.672 614.726 588.863 613.518 589.022C610.595 589.403 607.863 590.022 605.321 590.88C602.812 591.706 600.778 592.961 599.221 594.645C597.696 596.297 596.934 598.553 596.934 601.412C596.934 605.32 598.379 608.275 601.271 610.276C604.194 612.246 607.895 613.231 612.375 613.231ZM675.984 524.018V621.619H664.737V524.018H675.984ZM696.584 621.619V548.418H707.831V621.619H696.584ZM702.303 536.218C700.111 536.218 698.22 535.471 696.632 533.978C695.075 532.485 694.297 530.69 694.297 528.593C694.297 526.496 695.075 524.701 696.632 523.208C698.22 521.714 700.111 520.968 702.303 520.968C704.495 520.968 706.37 521.714 707.926 523.208C709.515 524.701 710.309 526.496 710.309 528.593C710.309 530.69 709.515 532.485 707.926 533.978C706.37 535.471 704.495 536.218 702.303 536.218Z" fill="#373435"/>
<path fill-rule="evenodd" clip-rule="evenodd" d="M525.058 417.707C526.391 416.859 532.074 405.631 533.077 403.175C538.012 391.094 541.021 382.388 542.443 369.488C543.042 364.057 543.234 359.295 543.179 354.202C543.073 344.3 541.504 334.846 539.177 326.216C537.716 320.795 535.889 317.078 534.754 313.347C534.175 311.439 530.11 303.319 528.871 301.153C519.173 284.202 505.742 269.713 488.71 260.023C472.139 250.596 452.505 244.97 433.535 245.622C427.445 245.831 425.739 245.971 419.602 246.833C415.454 247.415 410.418 248.571 406.391 249.7C402.652 250.747 397.625 252.675 393.888 254.208L386.402 257.844C380.377 260.815 370.282 267.823 365.511 272.373C360.94 276.733 360.237 277.246 355.471 282.547C336.178 304.003 325.632 336.902 328.479 365.419C329.373 374.368 330.12 380.65 332.982 389.371L334.435 394.267C335.784 397.289 336.338 399.339 337.523 402.184L340.555 408.341C340.899 409.023 340.822 409.086 341.303 409.772C342.806 411.918 347.697 421.11 349.791 423.04L345.241 412.531C344.491 410.852 343.876 408.886 343.244 407.081C340.282 398.62 338.448 386.409 338.209 377.602C337.603 355.22 344.371 331.25 359.505 312.06C365.384 304.606 369.274 300.583 376.596 294.713C385.841 287.301 395.569 282.319 406.624 278.569L414.89 276.265C415.944 276.087 416.74 275.937 417.736 275.726C421.289 274.976 425.625 274.445 429.369 274.1C436.615 273.431 447.76 274.296 454.542 275.675C464.054 277.607 473.422 280.822 482.295 285.764C488.224 289.067 493.459 292.717 498.553 297.078C508.416 305.524 518.396 317.991 523.796 329.747L527.242 337.688C528.827 342.415 530.401 346.591 531.511 351.63C531.953 353.641 532.316 355.254 532.634 357.453C534.406 369.723 534.687 376.329 533.172 389C532.251 396.704 530.447 403.358 527.74 410.694C527.316 411.842 525.029 417.507 525.057 417.709L525.058 417.707Z" fill="#373435"/>
<path fill-rule="evenodd" clip-rule="evenodd" d="M489.707 187.242L489.598 188.495C487.417 188.731 486.283 189.469 483.29 189.473C472.914 189.484 476.27 183.668 472.081 178.113C470.756 179.629 471.065 182.382 469.805 184.203C468.934 182.48 468.385 179.905 467.514 178.091L462.956 169.589C461.934 168 462.014 168.316 459.877 168.152C457.804 167.994 454.355 167.405 452.332 167.008C443.765 165.332 432.817 162.393 428.145 156.536C429.382 156.777 430.35 157.971 431.487 158.678C438.907 163.291 455.453 164.664 464.02 165.939C475.212 167.603 486.48 168.765 497.196 172.287C498.646 172.764 500.084 173.322 501.574 173.781C501.861 176.035 499.992 179.424 499.378 181.77C500.983 181.673 502.446 180.014 503.173 179.017C503.612 178.413 504.138 177.715 504.488 177.072C504.827 176.448 505.215 175.066 505.622 174.618C506.415 173.748 516.026 172.951 517.29 173.024C515.735 179.77 515.922 177.57 514.628 181.872C517.054 181.499 518.999 178.696 519.9 177.071C521.427 174.313 521.22 172.124 522.178 169.199C525.814 158.097 508.068 154.844 501.372 151.507C491.857 146.765 486.614 140.945 478.728 134.468C470.761 127.923 461.384 124.485 450.961 122.683L425.221 118.883C416.049 117.8 406.137 118.025 396.599 118.009C386.061 117.993 370.668 119.381 359.929 120.788C342.742 123.038 321.903 128.491 306.158 136.177C299.765 139.298 292.8 142.6 286.64 146.466C282.395 149.129 278.433 151.558 274.585 154.239C266.765 159.688 259.528 165.773 252.626 172.296L242.824 182.381C231.188 194.36 222.321 208.251 213.681 223.172C206.484 235.6 200.52 252.295 196.491 266.312C192.373 280.64 189.432 299.775 189.467 314.696C189.472 316.632 189.156 317.443 189.141 319.304C189.034 332.809 190.794 352.581 193.99 365.361C194.673 368.094 195.154 370.644 195.836 373.342C197.786 381.05 200.387 388.667 203.182 396.221C204.948 400.991 207.401 405.396 209.243 410.156C210.925 414.502 213.816 419.223 216.131 423.236C221.834 433.127 228.122 442.604 235.48 451.249C236.296 452.208 235.95 451.916 236.523 452.815L245.94 463.297C246.854 464.202 247.661 464.672 248.475 465.645C251.364 469.101 257.875 474.631 261.553 477.651C272.84 486.92 284.179 494.659 297.428 501.568L310.946 507.854C320.617 511.856 330.737 514.895 340.988 517.573C348.865 519.63 357.677 520.802 366.063 521.726C368.959 522.044 372.29 521.996 375.385 522.359C391.749 524.279 416.916 520.825 433.021 516.671L444.562 513.249C456.716 509.643 467.831 504.212 478.962 498.101C481.21 496.868 482.892 495.661 485.275 494.381C494.763 489.286 505.496 480.153 513.727 473.063C514.896 472.056 514.794 471.914 516.357 470.826C518.88 469.071 521.314 465.703 523.924 463.401C526.528 461.106 526.815 459.853 528.655 458.019C529.563 457.114 530.258 456.473 530.991 455.478C531.887 454.26 532.492 454.148 533.34 452.913C537.319 447.112 542.058 442.193 546.203 435.75C547.593 433.589 548.887 431.665 550.22 429.625C550.976 428.467 553.518 424.206 553.801 423.318C551.917 424.081 550.283 427.804 549.031 429.384C541.78 438.538 534.19 446.906 525.189 454.446C523.858 455.561 522.268 456.618 520.973 457.708C517.154 460.923 512.191 464.408 507.964 467.13C488.255 479.821 465.685 488.4 442.52 491.135C418.049 494.023 388.434 491.458 365.396 481.765C360.179 479.57 354.694 477.664 349.933 474.922L335.872 466.547C326.896 460.851 318.388 454.172 310.957 446.589C300.163 435.578 292.362 426.244 284.603 412.9C280.767 406.303 277.374 400.108 274.429 392.907C268.099 377.431 263.62 362.207 261.904 344.805C259.48 320.239 261.534 300.178 268.005 276.841C271.276 265.045 276.759 253.1 282.533 242.487C286.41 235.361 291.25 228.536 296.211 222.176C297.331 220.739 298.164 219.359 299.414 217.865C300.401 216.685 302.265 215.142 303.009 213.958C303.935 212.486 305.23 211.246 306.494 209.94C307.614 208.782 308.714 207.805 310.194 206.144C316.17 199.438 332.926 186.765 339.478 183.062L344.152 180.235C349.108 177.663 353.811 175.027 359.083 172.765C391.736 158.755 422.162 165.942 451.853 184.321L465.449 193.139C473.566 198.754 488.026 197.397 495.827 193.648C495.077 189.296 492.665 184.936 491.699 180.651C491.285 181.077 491.53 180.665 491.225 181.29C490.397 182.973 490.674 185.555 489.709 187.243L489.707 187.242ZM457.643 132.272C461.34 132.726 468.977 136.329 470.81 138.571C471.358 133.047 462.819 129.447 457.643 132.272Z" fill="#373435"/>
<path fill-rule="evenodd" clip-rule="evenodd" d="M477.479 237.442C476.232 235.803 461.445 229.92 458.243 228.95C442.503 224.177 431.238 221.46 414.985 221.446C408.143 221.44 402.191 221.872 395.864 222.68C383.559 224.251 372.026 227.687 361.627 232.005C355.093 234.718 350.734 237.667 346.258 239.703C343.968 240.745 334.453 247.285 331.938 249.233C312.251 264.486 296.166 284.314 286.57 308.205C277.235 331.447 273.072 358.187 276.621 383.142C277.761 391.155 278.181 393.387 280.138 401.365C281.46 406.76 283.626 413.242 285.611 418.397C287.455 423.184 290.578 429.543 293.026 434.256L298.629 443.617C303.195 451.145 313.369 463.461 319.718 469.106C325.802 474.513 326.542 475.368 333.824 480.896C363.301 503.275 405.748 512.452 440.812 504.574C451.814 502.102 459.521 500.209 469.956 495.171L475.837 492.544C479.402 490.327 481.871 489.298 485.24 487.322L492.461 482.429C493.259 481.876 493.349 481.969 494.134 481.235C496.586 478.941 507.315 471.155 509.412 468.111L496.997 475.637C495.015 476.869 492.659 477.966 490.506 479.06C480.408 484.192 465.483 488.378 454.562 489.965C426.807 493.996 396.01 488.52 369.955 471.306C359.834 464.619 354.268 460.063 345.907 451.24C335.353 440.102 327.751 427.976 321.49 413.919L317.431 403.336C317.057 401.971 316.755 400.941 316.35 399.656C314.904 395.073 313.618 389.425 312.647 384.53C310.769 375.057 310.235 360.215 310.971 351.061C312.003 338.221 314.649 325.386 319.516 312.956C322.768 304.65 326.553 297.21 331.244 289.854C340.327 275.611 354.394 260.632 368.24 251.804L377.62 246.109C383.271 243.331 388.239 240.651 394.347 238.458C396.784 237.583 398.739 236.87 401.428 236.134C416.435 232.023 424.614 230.698 440.594 230.869C450.311 230.974 458.849 232.394 468.367 234.911C469.856 235.305 477.233 237.507 477.48 237.441L477.479 237.442Z" fill="#373435"/>
<path fill-rule="evenodd" clip-rule="evenodd" d="M489.708 187.242C486.11 184.368 484.469 185.377 480.174 179.957C477.548 176.643 475.532 173.383 474.248 168.529L465.418 167.115C467.459 172.579 475.389 181.642 481.03 184.697C483.689 186.137 485.809 187.283 489.707 187.242H489.708Z" fill="#373435"/>
<path d="M102.895 679.636V638.885H108.426L129.83 670.88V638.885H135V679.636H129.469L108.065 647.614V679.636H102.895ZM162.797 679.636V675.299C160.499 678.635 157.377 680.303 153.43 680.303C151.688 680.303 150.057 679.969 148.537 679.302C147.036 678.635 145.915 677.801 145.174 676.8C144.451 675.781 143.942 674.539 143.645 673.076C143.441 672.093 143.339 670.537 143.339 668.406V650.115H148.343V666.488C148.343 669.101 148.445 670.861 148.649 671.769C148.964 673.085 149.631 674.123 150.65 674.882C151.669 675.624 152.929 675.994 154.43 675.994C155.931 675.994 157.34 675.614 158.655 674.855C159.971 674.076 160.898 673.029 161.435 671.713C161.991 670.379 162.269 668.452 162.269 665.932V650.115H167.272V679.636H162.797ZM173.138 670.824L178.085 670.046C178.363 672.029 179.132 673.548 180.393 674.604C181.671 675.661 183.45 676.189 185.73 676.189C188.027 676.189 189.732 675.725 190.844 674.799C191.956 673.854 192.512 672.751 192.512 671.491C192.512 670.361 192.021 669.471 191.039 668.823C190.353 668.378 188.648 667.813 185.924 667.127C182.255 666.2 179.707 665.404 178.28 664.736C176.872 664.051 175.797 663.115 175.056 661.929C174.333 660.724 173.972 659.399 173.972 657.954C173.972 656.638 174.268 655.425 174.861 654.313C175.473 653.182 176.297 652.246 177.335 651.505C178.113 650.931 179.17 650.449 180.504 650.06C181.857 649.652 183.302 649.448 184.84 649.448C187.156 649.448 189.186 649.782 190.928 650.449C192.688 651.116 193.985 652.024 194.819 653.173C195.653 654.303 196.228 655.823 196.543 657.732L191.65 658.399C191.428 656.879 190.779 655.693 189.705 654.841C188.648 653.988 187.147 653.562 185.201 653.562C182.904 653.562 181.264 653.942 180.281 654.702C179.299 655.462 178.808 656.351 178.808 657.37C178.808 658.019 179.012 658.603 179.42 659.121C179.827 659.659 180.467 660.104 181.338 660.456C181.838 660.641 183.311 661.067 185.757 661.734C189.297 662.679 191.762 663.458 193.151 664.069C194.56 664.662 195.662 665.533 196.459 666.682C197.256 667.831 197.654 669.258 197.654 670.963C197.654 672.631 197.163 674.206 196.181 675.688C195.218 677.152 193.818 678.292 191.984 679.107C190.149 679.904 188.074 680.303 185.757 680.303C181.921 680.303 178.993 679.506 176.974 677.912C174.972 676.318 173.694 673.956 173.138 670.824ZM222.866 675.994C221.013 677.569 219.225 678.681 217.501 679.33C215.797 679.978 213.962 680.303 211.998 680.303C208.755 680.303 206.262 679.515 204.52 677.94C202.778 676.346 201.907 674.317 201.907 671.852C201.907 670.407 202.232 669.091 202.88 667.905C203.547 666.701 204.409 665.737 205.465 665.014C206.54 664.292 207.745 663.745 209.079 663.374C210.061 663.115 211.544 662.865 213.526 662.624C217.566 662.142 220.541 661.568 222.449 660.9C222.468 660.215 222.477 659.779 222.477 659.594C222.477 657.556 222.005 656.119 221.059 655.286C219.781 654.155 217.881 653.59 215.361 653.59C213.008 653.59 211.266 654.007 210.135 654.841C209.023 655.656 208.199 657.111 207.661 659.205L202.769 658.538C203.214 656.444 203.946 654.757 204.965 653.479C205.984 652.182 207.457 651.19 209.385 650.504C211.312 649.8 213.545 649.448 216.084 649.448C218.604 649.448 220.652 649.745 222.227 650.338C223.802 650.931 224.96 651.681 225.701 652.589C226.443 653.479 226.962 654.609 227.258 655.98C227.425 656.833 227.508 658.371 227.508 660.595V667.266C227.508 671.917 227.61 674.864 227.814 676.105C228.036 677.328 228.463 678.505 229.093 679.636H223.867C223.348 678.598 223.014 677.384 222.866 675.994ZM222.449 664.82C220.633 665.561 217.909 666.191 214.277 666.71C212.22 667.007 210.765 667.34 209.913 667.711C209.06 668.081 208.403 668.628 207.939 669.351C207.476 670.055 207.244 670.843 207.244 671.713C207.244 673.048 207.745 674.16 208.745 675.049C209.765 675.939 211.247 676.383 213.193 676.383C215.12 676.383 216.834 675.966 218.335 675.132C219.836 674.28 220.939 673.122 221.643 671.658C222.181 670.527 222.449 668.86 222.449 666.654V664.82ZM235.291 679.636V650.115H239.795V654.313C241.963 651.07 245.094 649.448 249.19 649.448C250.969 649.448 252.6 649.772 254.082 650.421C255.583 651.051 256.704 651.885 257.446 652.923C258.187 653.961 258.706 655.193 259.002 656.62C259.187 657.546 259.28 659.168 259.28 661.484V679.636H254.277V661.679C254.277 659.64 254.082 658.121 253.693 657.12C253.304 656.101 252.609 655.295 251.608 654.702C250.626 654.09 249.468 653.784 248.134 653.784C246.002 653.784 244.159 654.461 242.602 655.814C241.064 657.166 240.295 659.733 240.295 663.513V679.636H235.291ZM277.904 675.16L278.627 679.58C277.218 679.876 275.958 680.025 274.846 680.025C273.03 680.025 271.622 679.738 270.621 679.163C269.621 678.589 268.916 677.838 268.509 676.911C268.101 675.966 267.897 673.993 267.897 670.991V654.007H264.228V650.115H267.897V642.805L272.873 639.803V650.115H277.904V654.007H272.873V671.269C272.873 672.696 272.956 673.613 273.123 674.021C273.308 674.428 273.596 674.753 273.985 674.994C274.392 675.234 274.967 675.355 275.708 675.355C276.264 675.355 276.996 675.29 277.904 675.16ZM302.087 675.994C300.234 677.569 298.446 678.681 296.723 679.33C295.018 679.978 293.183 680.303 291.219 680.303C287.976 680.303 285.483 679.515 283.741 677.94C281.999 676.346 281.128 674.317 281.128 671.852C281.128 670.407 281.453 669.091 282.101 667.905C282.768 666.701 283.63 665.737 284.686 665.014C285.761 664.292 286.966 663.745 288.3 663.374C289.282 663.115 290.765 662.865 292.748 662.624C296.787 662.142 299.762 661.568 301.67 660.9C301.689 660.215 301.698 659.779 301.698 659.594C301.698 657.556 301.226 656.119 300.281 655.286C299.002 654.155 297.102 653.59 294.582 653.59C292.229 653.59 290.487 654.007 289.356 654.841C288.244 655.656 287.42 657.111 286.882 659.205L281.99 658.538C282.435 656.444 283.167 654.757 284.186 653.479C285.205 652.182 286.679 651.19 288.606 650.504C290.533 649.8 292.766 649.448 295.305 649.448C297.825 649.448 299.873 649.745 301.448 650.338C303.023 650.931 304.181 651.681 304.923 652.589C305.664 653.479 306.183 654.609 306.479 655.98C306.646 656.833 306.729 658.371 306.729 660.595V667.266C306.729 671.917 306.831 674.864 307.035 676.105C307.258 677.328 307.684 678.505 308.314 679.636H303.088C302.569 678.598 302.236 677.384 302.087 675.994ZM301.67 664.82C299.854 665.561 297.13 666.191 293.498 666.71C291.441 667.007 289.986 667.34 289.134 667.711C288.282 668.081 287.624 668.628 287.16 669.351C286.697 670.055 286.465 670.843 286.465 671.713C286.465 673.048 286.966 674.16 287.966 675.049C288.986 675.939 290.468 676.383 292.414 676.383C294.341 676.383 296.055 675.966 297.556 675.132C299.057 674.28 300.16 673.122 300.864 671.658C301.402 670.527 301.67 668.86 301.67 666.654V664.82ZM314.457 679.636V650.115H318.96V654.591C320.109 652.497 321.165 651.116 322.129 650.449C323.111 649.782 324.186 649.448 325.353 649.448C327.04 649.448 328.754 649.986 330.496 651.06L328.772 655.702C327.549 654.98 326.326 654.618 325.103 654.618C324.01 654.618 323.028 654.952 322.157 655.619C321.286 656.268 320.665 657.176 320.294 658.343C319.738 660.122 319.46 662.068 319.46 664.181V679.636H314.457ZM352.733 675.994C350.88 677.569 349.092 678.681 347.368 679.33C345.664 679.978 343.829 680.303 341.865 680.303C338.622 680.303 336.129 679.515 334.387 677.94C332.645 676.346 331.774 674.317 331.774 671.852C331.774 670.407 332.099 669.091 332.747 667.905C333.414 666.701 334.276 665.737 335.332 665.014C336.407 664.292 337.612 663.745 338.946 663.374C339.928 663.115 341.411 662.865 343.393 662.624C347.433 662.142 350.408 661.568 352.316 660.9C352.335 660.215 352.344 659.779 352.344 659.594C352.344 657.556 351.872 656.119 350.926 655.286C349.648 654.155 347.748 653.59 345.228 653.59C342.875 653.59 341.133 654.007 340.002 654.841C338.89 655.656 338.066 657.111 337.528 659.205L332.636 658.538C333.081 656.444 333.813 654.757 334.832 653.479C335.851 652.182 337.324 651.19 339.252 650.504C341.179 649.8 343.412 649.448 345.951 649.448C348.471 649.448 350.519 649.745 352.094 650.338C353.669 650.931 354.827 651.681 355.568 652.589C356.31 653.479 356.829 654.609 357.125 655.98C357.292 656.833 357.375 658.371 357.375 660.595V667.266C357.375 671.917 357.477 674.864 357.681 676.105C357.903 677.328 358.33 678.505 358.96 679.636H353.734C353.215 678.598 352.881 677.384 352.733 675.994ZM352.316 664.82C350.5 665.561 347.776 666.191 344.144 666.71C342.087 667.007 340.632 667.34 339.78 667.711C338.927 668.081 338.27 668.628 337.806 669.351C337.343 670.055 337.111 670.843 337.111 671.713C337.111 673.048 337.612 674.16 338.612 675.049C339.632 675.939 341.114 676.383 343.06 676.383C344.987 676.383 346.701 675.966 348.202 675.132C349.703 674.28 350.806 673.122 351.51 671.658C352.048 670.527 352.316 668.86 352.316 666.654V664.82Z" fill="#373435"/>
</svg>
